<?xml version="1.0" encoding="utf-8"?>
<!-- Generator: Adobe Illustrator 25.2.0, SVG Export Plug-In . SVG Version: 6.00 Build 0)  -->
<svg version="1.1" id="Layer_1" xmlns="http://www.w3.org/2000/svg" xmlns:xlink="http://www.w3.org/1999/xlink" x="0px" y="0px"
	 viewBox="0 0 1920 338.1" style="enable-background:new 0 0 1920 338.1;" xml:space="preserve">
<style type="text/css">
	.st0{fill:#414042;}
</style>
<g>
	<path class="st0" d="M160,178.2c0.8,0.8,0.2,2.5-1.8,5.1c-2,2.6-4.6,5.7-7.6,9.2v75.2c0,1.4-0.6,2.6-1.6,3.7
		c-1.1,1.1-2.2,2.3-3.3,3.7c-3.8,4.9-7.9,9.4-12.3,13.5c-2.2,2.2-4.4,4.4-6.7,6.5c-2.3,2.2-4.7,4.2-7.2,6.1
		c-0.5,0.6-1.6,1.4-3.1,2.7c-1.5,1.2-2.8,1.8-3.9,1.8H36.9c-3,3.3-6.1,6.5-9.2,9.8c-3.1,3.3-6.6,6-10.4,8.2
		c-2.2,1.4-3.3,1.6-3.3,0.8s0.5-1.9,1.4-3.3c1-1.4,2-2.8,3.3-4.3c1.2-1.5,2.1-2.4,2.7-2.7c3.8-4.4,7.6-8.8,11.5-13.3
		c3.8-4.5,7.9-8.8,12.3-12.9v-20.9v-60.9c-1.9-1.6-3.8-3.3-5.7-4.9c-1.9-1.6-3.5-3.3-4.9-4.9c-0.5-0.8,0.2-2.5,2.2-5.1
		c2-2.6,4.8-5.7,8.4-9.2v-58.1V97.6c0-2.2,0.1-4.6,0.2-7.4c0.1-2.7,0.1-5.2-0.2-7.4c-0.5-2.2-1.7-3.9-3.5-5.3
		c-1.8-1.4-3.5-2.7-5.1-4.1c-3-3.5-6.3-6.9-9.8-10c-3.5-3.1-6.8-6.6-9.8-10.4c-0.5-0.3-0.1-1.5,1.4-3.7c1.5-2.2,3.5-4.8,6.1-7.8
		c2.6-3,5.5-6.1,8.8-9.2c3.3-3.1,6.4-6,9.4-8.6c3-2.6,5.7-4.7,8-6.3c2.3-1.6,3.7-2.2,4.3-1.6v0.8c0.3-0.5,0.7-0.8,1.2-0.8H93h25.8
		c1.6,0,3.8-0.1,6.5-0.4c2.7-0.3,4.8-0.1,6.1,0.4c1.9,0.8,3.7,2.5,5.3,4.9c1.6,2.5,3.1,4.4,4.5,5.7c1.4,1.4,3.1,2.9,5.3,4.5
		c2.2,1.6,3.5,3.3,4.1,4.9c0.5,1.6,0.7,3.9,0.4,6.7c-0.3,2.9-0.4,5.4-0.4,7.6v80.2v38c1.6,1.9,3.3,3.7,4.9,5.3
		C157.2,175.3,158.7,176.8,160,178.2z M112.6,267.8v-17.2v-44.2l-9.8-9.8c-0.5-0.8,0.2-2.5,2.2-4.9c2-2.5,4.6-5.6,7.6-9.4V82.5
		c0-2.2,0-4.2,0-5.9c0-1.8-0.7-3.5-2-5.1c-1.9-2.7-4.2-5.2-6.7-7.6c-2.6-2.3-5.1-5-7.6-8c-1.4-1.4-2.2-2.2-2.7-2.5
		c-0.4-0.3-1.4-0.4-3.1-0.4h-8.6v115.7c1.9,1.9,3.7,3.6,5.3,5.1c1.6,1.5,3.1,2.9,4.5,4.3c0.5,0.8-0.1,2.5-1.8,5.1
		c-1.8,2.6-4.4,5.7-8,9.2v74.4c0,0.3-0.1,0.6-0.4,0.8h2.9H112.6z"/>
	<path class="st0" d="M216.1,252.6c0,0.6-0.3,1.4-0.8,2.5c1.9,1.9,3.7,3.8,5.5,5.7c1.8,1.9,3.7,4,5.9,6.1c0.8,0.6-0.6,3-4.3,7.4
		c-3.7,4.4-7.9,8.9-12.7,13.5c-4.8,4.6-9.3,8.8-13.7,12.5c-4.4,3.7-6.8,5.1-7.4,4.3c-4.9-4.9-9.9-9.8-14.9-14.7
		c-5-4.9-10-9.8-14.9-14.7c-0.5-0.3-0.3-1.2,0.8-2.9c1.1-1.6,2.5-3.5,4.3-5.7c1.8-2.2,4-4.6,6.5-7.4c2.6-2.7,5.1-5.3,7.6-7.8v-45.8
		c-1.4-1.6-2.9-3.3-4.7-4.9c-1.8-1.6-3.5-3.3-5.1-4.9c-0.5-0.5,0.2-2,2.2-4.5c2-2.5,4.6-5.6,7.6-9.4v-13.1c0-4.9,0.2-10.1,0.6-15.5
		c0.4-5.5,0.2-10.8-0.6-15.9c-0.5-3.5-2.7-6.8-6.3-9.8c-3.7-3-6.7-5.7-9.2-8.2c-0.8-0.8,0.6-3.3,4.3-7.6c3.7-4.2,7.9-8.7,12.7-13.5
		c4.8-4.8,9.3-9,13.5-12.7c4.2-3.7,6.7-5.2,7.6-4.7c2.2,2.5,4.9,5,8.2,7.6c3.3,2.6,5.6,5.3,7,8c0.5,0.8,0.7,1.7,0.6,2.7
		c-0.1,1-0.2,2-0.2,3.1v65.4c1.6,1.9,3.3,3.7,5.1,5.3c1.8,1.6,3.6,3.4,5.5,5.3c0.5,0.5-0.3,2.2-2.5,4.9c-2.2,2.7-4.9,6-8.2,9.8
		V252.6z M188.7,67.4c-3.5-3.5-7-7-10.2-10.4c-3.3-3.4-6.7-6.7-10.2-10c-0.8-0.8,0.6-3.3,4.3-7.6c3.7-4.2,7.9-8.7,12.7-13.5
		c4.8-4.8,9.3-9,13.7-12.7c4.4-3.7,7-5.1,7.8-4.3c3,3.5,6.2,7,9.6,10.2c3.4,3.3,6.9,6.5,10.4,9.8c0.8,0.8-0.6,3.3-4.3,7.6
		c-3.7,4.2-7.9,8.7-12.7,13.5c-4.8,4.8-9.3,9-13.7,12.7C191.7,66.4,189.2,67.9,188.7,67.4z"/>
	<path class="st0" d="M340.4,190.5c0,7.9,0.1,15.8,0.2,23.7c0.1,7.9,0.1,15.9-0.2,24.1c0,5.5-2,10.1-5.9,13.9
		c-4,3.8-7.7,7.4-11.2,10.6l-15.9,15.9c-4.4,4.4-8.7,9-13.1,13.9c-4.4,4.9-9.1,8.9-14.3,11.9c-2.5,1.4-5.1,2-8,1.8
		c-2.9-0.1-5.7-0.2-8.4-0.2h-45c-0.3,0,0.3-1,1.6-3.1c1.4-2,2.3-3.2,2.9-3.5c1.9-2.7,3.9-5.2,6.1-7.6c2.2-2.3,4.4-4.7,6.5-7.2
		c4.1-4.1,8.9-8.2,14.3-12.3c0.8-0.8,1.8-1.8,2.9-3.1c1.1-1.2,2.3-1.8,3.7-1.8h45.8V206c-1.6-1.6-3.3-3.3-4.9-5.1
		c-1.6-1.8-3.3-3.5-4.9-5.1c-6,5.5-11.9,10.8-17.8,16.2c-5.9,5.3-11.8,10.7-17.8,16.2c-3.3,2.7-5.9,4.8-7.8,6.3
		c-1.9,1.5-4.5,3.5-7.8,5.9v-35.6c-3.8-3-7.2-6.4-10.2-10.2c-0.5-0.5,0.1-2.1,2-4.7c1.9-2.6,4.6-5.8,8.2-9.6v-30.7
		c0-4.9,1.6-9.1,4.7-12.7c3.1-3.5,6.3-7.1,9.6-10.6c3.5-3.5,7.1-7,10.6-10.2c3.5-3.3,7.1-6.4,10.6-9.4c3-3,6-5.8,9-8.4
		c3-2.6,6-5.4,9-8.4c1.9-1.9,3.8-3.6,5.7-5.1c1.9-1.5,4.2-2.4,7-2.7h10.2h26.6c1.4,0,2.1,0,2.2,0c0.1,0,0.5,0.5,1,1.6
		c0.8,0.8,1,2.4,0.6,4.7c-0.4,2.3-0.6,4.2-0.6,5.5c0,1.4-0.5,2.7-1.4,3.9c-1,1.2-1.8,2.3-2.7,3.1c-1.9,2.7-4,5.2-6.1,7.4
		c-2.2,2.2-4.4,4.4-6.5,6.5c-2.5,2.2-4.8,4.4-7,6.7c-2.2,2.3-4.4,4.4-6.5,6.3c-1.4,0.8-2.6,1.6-3.7,2.5l-3.7,2
		c0-1.4,0.1-3.5,0.2-6.5c0.1-3-0.1-4.9-0.6-5.7c-1.1-0.5-3.1-0.7-6.1-0.4c-3,0.3-5,0.4-6.1,0.4h-18v47c1.6,1.6,3.3,3.2,5.1,4.7
		c1.8,1.5,3.5,3.2,5.1,5.1c0.5,0.5-0.2,2.2-2.2,4.9c-2,2.7-4.7,5.9-8,9.4v8.6c4.6-4.4,9.3-8.7,13.9-12.9c4.6-4.2,9.3-8.4,13.9-12.5
		c2.7-2.7,5.4-5.3,8-7.8c2.6-2.5,5-4.6,7.2-6.5c1.1-1.1,1.9-1.6,2.5-1.6c3.3-2.7,5.9-4.9,7.8-6.5c1.9-1.6,3.7-3.1,5.3-4.3
		c1.6-1.2,2.5-1.7,2.5-1.4V168c1.6,1.4,3.3,2.8,4.9,4.3c1.6,1.5,3.1,3.1,4.5,4.7c0.5,0.5-0.1,2-2,4.5c-1.9,2.5-4.4,5.3-7.4,8.6
		V190.5z"/>
	<path class="st0" d="M445.9,257.1c2.2-1.4,3.3-1.7,3.3-1c0,0.7-0.5,1.7-1.4,3.1c-1,1.4-2.1,2.9-3.5,4.5c-1.4,1.6-2.2,2.6-2.5,2.9
		c-2.2,2.5-4.2,4.8-6.1,7c-1.9,2.2-4,4.4-6.1,6.5c-0.5,0.5-2.4,2.4-5.5,5.5c-3.1,3.1-6.5,6.5-10.2,10c-3.7,3.5-7.1,6.5-10.2,9
		c-3.1,2.5-4.8,3.4-5.1,2.9c-2.7-4.4-5.5-8.8-8.2-13.3c-2.7-4.5-5.6-9.1-8.6-13.7c-1.4-1.9-2.2-3.4-2.7-4.5
		c-0.4-1.1-0.6-2.9-0.6-5.3v-62.2c-2.2-1.9-4-3.7-5.5-5.5c-1.5-1.8-3.1-3.3-4.7-4.7c-0.5-0.8,0.2-2.5,2.2-5.1c2-2.6,4.7-5.8,8-9.6
		v-36.4v-29.4c0-2.5,0.1-5.1,0.4-8c0.3-2.9,0.1-5.4-0.4-7.6c-0.5-2.2-1.8-4.2-3.9-5.9c-2-1.8-3.9-3.5-5.5-5.1c-3-3-6.3-6.1-10-9.2
		c-3.7-3.1-7-6.2-10-9.2c-0.8-0.8,0.7-3.4,4.5-7.8c3.8-4.4,8.2-9,13.1-13.9c4.9-4.9,9.6-9.2,14.1-12.9c4.5-3.7,7.2-5.1,8-4.3
		c3.5,3.8,7.2,7.6,10.8,11.2c3.7,3.7,7.4,7.4,11.2,11.2c2.2,2.2,3.7,3.8,4.5,4.9c0.8,1.1,1.2,2.7,1.2,4.9v24.1
		c0.3,0,0.5-0.1,0.6-0.2c0.1-0.1,0.3-0.2,0.6-0.2h29.4c0.3,0-0.3,1.1-1.6,3.3c-1.4,2.2-2.2,3.5-2.5,4.1c-2.2,2.5-4.4,4.9-6.5,7.4
		c-2.2,2.5-4.4,4.8-6.5,7c-2.2,2.2-4.4,4.2-6.7,6.1c-2.3,1.9-4.6,4-6.7,6.1v46.6c1.9,1.4,3.7,2.9,5.3,4.5c1.6,1.6,3.3,3.3,4.9,4.9
		c0.5,0.8-0.2,2.5-2.2,5.1c-2,2.6-4.7,5.5-8,8.8c-0.3,7.1-0.5,14.1-0.6,21.1c-0.1,7,0.1,13.8,0.6,20.7c0.3,1.9,1,3.7,2.2,5.3
		c1.2,1.6,2.4,3.4,3.5,5.3c2.2,3.3,4.4,6.5,6.5,9.6c2.2,3.1,4.4,6.5,6.5,10c1.4-1.9,3-3.5,4.9-4.9
		C442.1,259.4,444,258.2,445.9,257.1z"/>
	<path class="st0" d="M575.1,110.3c0.5,0.6-0.1,2-1.8,4.5c-1.8,2.5-4.2,5.3-7.2,8.4c-3,3.1-6.3,6.5-9.8,10c-3.5,3.5-6.8,6.5-9.8,9
		l-0.8,0.8c-1.4,2.2-2.5,4.4-3.5,6.5c-1,2.2-1.8,4.4-2.7,6.5c-0.3,0.8-0.5,1.5-0.6,2c-0.1,0.5-0.2,1.1-0.2,1.6l-0.8,4.1
		c-0.8,2.2-1.2,4.6-1.2,7.4c-0.5,1.9-1.1,4.5-1.6,7.8l-1.2,7.8v0.4c0,0.8-0.4,1.6-1.2,2.3c-0.8,0.7-1.6,1-2.5,1
		c-2.2-0.5-3.3-1.8-3.3-3.7l-0.8-8.2v-8.2c0-1.4,0.1-2.8,0.2-4.3c0.1-1.5,0.2-2.9,0.2-4.3l0.4-4.1c0-1.4,0.3-2.9,0.8-4.5
		c0.3-1.9,0.7-3.7,1.2-5.3c0.5-1.6,1.1-3.5,1.6-5.7c-3-3-6.1-6-9.2-9c-3.1-3-6.2-6-9.2-9v9v36.4c1.6,1.4,3.3,2.9,5.1,4.7
		c1.8,1.8,3.5,3.5,5.1,5.1c0.5,0.8-0.2,2.6-2.2,5.3c-2,2.7-4.7,5.9-8,9.4v61.3c0,0.3-0.3,1-0.8,2c1.9,2.2,3.7,4.2,5.5,5.9
		c1.8,1.8,3.6,3.6,5.5,5.5c0.8,0.8-0.6,3.4-4.3,7.8c-3.7,4.4-7.9,8.9-12.7,13.7c-4.8,4.8-9.3,8.9-13.5,12.5c-4.2,3.5-6.7,5-7.6,4.5
		c-5.2-4.9-10.2-9.9-15.1-14.9c-4.9-5-10-10-15.1-14.9c-0.5-0.8,1.3-3.7,5.5-8.6c4.2-4.9,9.1-9.9,14.5-15.1v-46.2
		c-1.9-1.6-3.7-3.3-5.3-5.1c-1.6-1.8-3.3-3.3-4.9-4.7c-0.8-0.5-0.1-2.1,2-4.7c2.2-2.6,4.9-5.7,8.2-9.2v-17.2c0-3,0.1-6.4,0.4-10.2
		c0.3-3.8-0.3-6.8-1.6-9c-2.2-3-4.8-5.8-7.8-8.4c-3-2.6-5.7-5-8.2-7.2c-2.2-1.9-4.2-3.7-5.9-5.5c-1.8-1.8-3.7-3.7-5.9-5.9
		c-0.8-0.8,0.6-3.4,4.3-7.8c3.7-4.4,7.9-8.9,12.7-13.7c4.8-4.8,9.3-9,13.7-12.7c4.4-3.7,7-5.1,7.8-4.3c2.5,2.2,5,4.5,7.6,7
		c2.6,2.5,5,5,7.2,7.8c1.9,2.2,4.4,4.4,7.6,6.7c3.1,2.3,5.2,4.6,6.3,6.7c0.3,0.6,0.4,1.4,0.4,2.5c2.2-2.7,5.1-6,8.8-9.8
		c3.7-3.8,7.3-7.4,10.8-10.6c3.5-3.3,6.7-5.9,9.4-8c2.7-2,4.4-2.8,4.9-2.2c4.6,4.6,9.3,9.3,14.1,14.1
		C565.3,101,570.2,105.7,575.1,110.3z"/>
	<path class="st0" d="M628.3,252.6c0,0.6-0.3,1.4-0.8,2.5c1.9,1.9,3.7,3.8,5.5,5.7c1.8,1.9,3.7,4,5.9,6.1c0.8,0.6-0.6,3-4.3,7.4
		c-3.7,4.4-7.9,8.9-12.7,13.5c-4.8,4.6-9.3,8.8-13.7,12.5c-4.4,3.7-6.8,5.1-7.4,4.3c-4.9-4.9-9.9-9.8-14.9-14.7
		c-5-4.9-10-9.8-14.9-14.7c-0.5-0.3-0.3-1.2,0.8-2.9c1.1-1.6,2.5-3.5,4.3-5.7c1.8-2.2,4-4.6,6.5-7.4c2.6-2.7,5.1-5.3,7.6-7.8v-45.8
		c-1.4-1.6-2.9-3.3-4.7-4.9c-1.8-1.6-3.5-3.3-5.1-4.9c-0.5-0.5,0.2-2,2.2-4.5c2-2.5,4.6-5.6,7.6-9.4v-13.1c0-4.9,0.2-10.1,0.6-15.5
		c0.4-5.5,0.2-10.8-0.6-15.9c-0.5-3.5-2.7-6.8-6.3-9.8c-3.7-3-6.7-5.7-9.2-8.2c-0.8-0.8,0.6-3.3,4.3-7.6c3.7-4.2,7.9-8.7,12.7-13.5
		c4.8-4.8,9.3-9,13.5-12.7c4.2-3.7,6.7-5.2,7.6-4.7c2.2,2.5,4.9,5,8.2,7.6c3.3,2.6,5.6,5.3,7,8c0.5,0.8,0.7,1.7,0.6,2.7
		c-0.1,1-0.2,2-0.2,3.1v65.4c1.6,1.9,3.3,3.7,5.1,5.3c1.8,1.6,3.6,3.4,5.5,5.3c0.5,0.5-0.3,2.2-2.5,4.9c-2.2,2.7-4.9,6-8.2,9.8
		V252.6z M600.9,67.4c-3.5-3.5-7-7-10.2-10.4c-3.3-3.4-6.7-6.7-10.2-10c-0.8-0.8,0.6-3.3,4.3-7.6c3.7-4.2,7.9-8.7,12.7-13.5
		c4.8-4.8,9.3-9,13.7-12.7c4.4-3.7,7-5.1,7.8-4.3c3,3.5,6.2,7,9.6,10.2c3.4,3.3,6.9,6.5,10.4,9.8c0.8,0.8-0.6,3.3-4.3,7.6
		c-3.7,4.2-7.9,8.7-12.7,13.5c-4.8,4.8-9.3,9-13.7,12.7C603.9,66.4,601.4,67.9,600.9,67.4z"/>
	<path class="st0" d="M775.5,180.6c0.5,0.6-0.2,2.1-2.2,4.7c-2,2.6-4.8,5.7-8.4,9.2v43.3c0,1.1-0.5,2.2-1.6,3.5
		c-1.1,1.2-2,2.4-2.9,3.5c-1.6,2.2-3.6,4.4-5.9,6.7c-2.3,2.3-4.6,4.6-6.7,6.7c-2.2,2.5-4.4,4.7-6.7,6.7c-2.3,2-4.7,4.2-7.2,6.3
		c-0.3,0-0.5,0.1-0.8,0.4l-1.2,1.2c-2.2,3-5.1,6.5-8.8,10.4c-3.7,4-7.4,7.7-11.2,11.2c-3.8,3.5-7.2,6.4-10.2,8.6
		c-3,2.2-4.8,3-5.3,2.5c-4.4-4.1-8.6-8.2-12.7-12.3c-4.1-4.1-8.2-8.2-12.3-12.3c-2.5-2.5-4-4.2-4.7-5.1c-0.7-1-1-2.9-1-5.9v-60.5
		c-2.2-1.9-4.2-3.7-6.1-5.5c-1.9-1.8-3.8-3.7-5.7-5.9c-0.5-0.5,0.3-2.5,2.7-5.7c2.3-3.3,5.4-6.8,9.2-10.6V132
		c0-8.7,0.2-17.6,0.6-26.6c0.4-9,0.2-17.8-0.6-26.6c-0.3-2.5-1.1-4.2-2.5-5.3c-1.4-1.1-3.1-2.5-5.3-4.1c-3.8-3.5-7.5-7-11-10.2
		c-3.5-3.3-7.2-6.7-11-10.2c-0.5-0.5,1-3,4.5-7.4c3.5-4.4,7.7-9,12.5-13.9c4.8-4.9,9.3-9.1,13.7-12.7c4.4-3.5,7-4.9,7.8-4.1
		c4.4,3.8,8.6,7.6,12.7,11.5c4.1,3.8,8.4,7.6,13.1,11.5c2.2,2.2,3.3,3.7,3.5,4.5c0.1,0.8,0.2,2.7,0.2,5.7v64.6
		c2.7-3,5.8-6.2,9.2-9.6c3.4-3.4,6.6-6.5,9.6-9.2c3-2.7,5.6-4.8,7.8-6.3c2.2-1.5,3.5-2,4.1-1.4c2.2,2.2,4.3,4.3,6.3,6.3
		c2,2,4.2,4.3,6.3,6.8c2.7,2.5,5.7,5,8.8,7.6c3.1,2.6,5.8,5.3,8,8c1.4,2.5,1.9,5.1,1.6,8c-0.3,2.9-0.4,5.5-0.4,8v42.9
		c1.9,1.9,3.7,3.7,5.3,5.5C771.8,176.9,773.6,178.7,775.5,180.6z M712.9,246.1c2.2,2.5,4.4,4.8,6.7,7.2c2.3,2.3,4.6,4.6,6.7,6.7
		v-10.6V208c-3-3.3-6.3-6.5-9.8-9.8c-0.5-0.5,0.2-2.2,2.2-4.9c2-2.7,4.6-5.7,7.6-9v-22.5c0-1.9,0.1-3.5,0.2-4.9
		c0.1-1.4,0.1-2.6-0.2-3.7c-0.3-1.1-0.7-2.2-1.2-3.3c-0.5-1.1-1.5-2.3-2.9-3.7c-3-3-6.1-6-9.2-9c-3.1-3-6.3-6-9.6-9v43.8
		c1.4,1.4,2.8,2.7,4.3,4.1c1.5,1.4,2.9,2.9,4.3,4.5c0.5,0.6,0,1.9-1.6,4.1c-1.6,2.2-4,4.8-7,7.8v24.1c0,3-0.1,6.1-0.2,9.2
		c-0.1,3.1-0.1,6.2,0.2,9.2c0.5,2.5,1.8,4.5,3.7,6.1C709.1,242.8,711,244.4,712.9,246.1z"/>
	<path class="st0" d="M936.2,257.1c2.2-1.4,3.3-1.7,3.3-1c0,0.7-0.5,1.7-1.4,3.1c-1,1.4-2.1,2.9-3.5,4.5c-1.4,1.6-2.2,2.6-2.5,2.9
		c-2.2,2.5-4.3,4.8-6.3,7c-2,2.2-4,4.4-5.9,6.5c-0.5,0.5-2.4,2.4-5.5,5.5c-3.1,3.1-6.5,6.5-10,10c-3.5,3.5-6.9,6.5-10,9
		c-3.1,2.5-4.8,3.4-5.1,2.9c-2.2-3.5-4.4-7-6.5-10.2c-2.2-3.3-4.2-6.7-6.1-10.2c-1.4-1.9-2.9-3.9-4.5-5.9c-1.6-2-2.7-4.2-3.3-6.3
		c-0.6-1.9-0.7-3.9-0.4-5.9c0.3-2,0.4-4.2,0.4-6.3c-0.8,1.1-1.6,2-2.2,2.7c-0.7,0.7-1,1.2-1,1.4c-2.2,2.5-4.2,4.8-6.1,7
		c-1.9,2.2-4,4.4-6.1,6.5c-0.5,0.5-2.4,2.4-5.5,5.5c-3.1,3.1-6.5,6.5-10,10c-3.5,3.5-6.9,6.5-10,9c-3.1,2.5-5,3.4-5.5,2.9
		c-2.2-3.5-4.3-7-6.3-10.2c-2-3.3-4.3-6.7-6.7-10.2c-1.1-1.9-2.5-3.9-4.1-5.9c-1.6-2-2.6-4.2-2.9-6.3c-0.5-2.2-0.7-4.6-0.4-7.2
		c0.3-2.6,0.4-5,0.4-7.2v-24.5v-27.4c-1.9-1.9-3.7-3.7-5.5-5.5c-1.8-1.8-3.5-3.3-5.1-4.7c-0.5-0.8,0.2-2.5,2.2-5.1
		c2-2.6,4.8-5.8,8.4-9.6v-5.3v-20.9c0-1.4,0.1-2.9,0.2-4.5c0.1-1.6-0.1-2.9-0.6-3.7c-0.3-0.8-1-1.7-2.2-2.7c-1.2-1-2.1-1.7-2.7-2.3
		c-2.2-3-5.2-6.1-9-9.4l-14.3-14.3c-0.5-0.8,1-3.3,4.7-7.6c3.7-4.2,7.9-8.7,12.7-13.5c4.8-4.8,9.3-9,13.5-12.7
		c4.2-3.7,6.7-5.1,7.6-4.3c3,2.7,5.8,5.5,8.4,8.2c2.6,2.7,5.4,5.5,8.4,8.2c1.4,1.6,3.4,3.5,6.1,5.7c2.7,2.2,4.5,4.4,5.3,6.5
		c0.5,1.1,0.8,2.3,0.8,3.7c0,1.4-0.1,2.7-0.4,4.1c0.8-1.9,3.1-5,7-9.4c3.8-4.4,8-8.7,12.5-12.9c4.5-4.2,8.6-7.8,12.3-10.8
		c3.7-3,5.8-4.1,6.3-3.3c3,2.7,5.8,5.5,8.4,8.2c2.6,2.7,5.4,5.5,8.4,8.2c1.9,1.6,4.2,3.5,6.7,5.7c2.6,2.2,4.2,4.4,4.7,6.5
		c0.5,1.6,0.7,3.7,0.4,6.1c-0.3,2.5-0.4,4.8-0.4,7v23.3v22.9c2.2,1.4,4,2.9,5.5,4.5c1.5,1.6,3.2,3.3,5.1,4.9
		c0.5,0.8-0.3,2.5-2.5,5.1c-2.2,2.6-4.9,5.5-8.2,8.8v11v22.5c0,1.6-0.1,3.4-0.4,5.3c-0.3,1.9-0.1,3.5,0.4,4.9
		c0.8,2.2,2.3,4.6,4.5,7.2c2.2,2.6,3.9,5,5.3,7.2c1.4,2.2,2.8,4.4,4.3,6.7c1.5,2.3,2.9,4.7,4.3,7.2
		C928.7,262.2,932.4,259.3,936.2,257.1z M858.9,265.7c2.7-3,6-5.7,9.8-8.2v-21.7v-27.4c-3.5-3.8-7-7.2-10.2-10.2
		c-0.5-0.8,0.1-2.5,2-5.1c1.9-2.6,4.6-5.8,8.2-9.6v-5.3v-20.9c0-1.4,0.1-2.9,0.4-4.5c0.3-1.6,0.1-2.9-0.4-3.7
		c-0.6-0.8-1.4-1.7-2.5-2.7c-1.1-1-1.9-1.7-2.5-2.3c-1.6-1.6-3.2-3.3-4.7-4.9c-1.5-1.6-2.9-3.1-4.3-4.5c-2.5-2.5-4.9-4.8-7.4-7.2
		c-2.5-2.3-4.8-4.7-7-7.2c0,0.6-0.1,1.2-0.2,1.8c-0.1,0.7-0.2,1.3-0.2,1.8v23.3v22.9c1.6,1.4,3.3,2.9,5.1,4.5
		c1.8,1.6,3.5,3.3,5.1,4.9c0.5,0.8-0.2,2.5-2.2,5.1c-2,2.6-4.7,5.5-8,8.8v11v22.5c0,1.6-0.1,3.4-0.4,5.3c-0.3,1.9-0.1,3.5,0.4,4.9
		c0.5,2.2,1.9,4.6,4.1,7.2c2.2,2.6,3.9,5,5.3,7.2c1.6,2.2,3.2,4.4,4.7,6.7C855.7,260.9,857.3,263.3,858.9,265.7z"/>
	<path class="st0" d="M1012.7,257.1c2.2-1.4,3.3-1.7,3.3-1c0,0.7-0.5,1.7-1.4,3.1c-1,1.4-2.1,2.9-3.5,4.5c-1.4,1.6-2.2,2.6-2.5,2.9
		c-2.2,2.5-4.2,4.8-6.1,7c-1.9,2.2-4,4.4-6.1,6.5c-0.6,0.5-2.4,2.4-5.5,5.5c-3.1,3.1-6.5,6.5-10.2,10c-3.7,3.5-7.1,6.5-10.2,9
		c-3.1,2.5-4.8,3.4-5.1,2.9c-2.7-4.4-5.5-8.8-8.2-13.3c-2.7-4.5-5.6-9.1-8.6-13.7c-1.4-1.9-2.2-3.4-2.7-4.5
		c-0.4-1.1-0.6-2.9-0.6-5.3v-62.2c-2.2-1.9-4-3.7-5.5-5.5c-1.5-1.8-3.1-3.3-4.7-4.7c-0.5-0.8,0.2-2.5,2.2-5.1c2-2.6,4.7-5.8,8-9.6
		v-36.4v-29.4c0-2.5,0.1-5.1,0.4-8c0.3-2.9,0.1-5.4-0.4-7.6c-0.5-2.2-1.8-4.2-3.9-5.9c-2-1.8-3.9-3.5-5.5-5.1c-3-3-6.3-6.1-10-9.2
		c-3.7-3.1-7-6.2-10-9.2c-0.8-0.8,0.7-3.4,4.5-7.8c3.8-4.4,8.2-9,13.1-13.9c4.9-4.9,9.6-9.2,14.1-12.9c4.5-3.7,7.2-5.1,8-4.3
		c3.5,3.8,7.2,7.6,10.8,11.2c3.7,3.7,7.4,7.4,11.2,11.2c2.2,2.2,3.7,3.8,4.5,4.9c0.8,1.1,1.2,2.7,1.2,4.9v24.1
		c0.3,0,0.5-0.1,0.6-0.2c0.1-0.1,0.3-0.2,0.6-0.2h29.4c0.3,0-0.3,1.1-1.6,3.3c-1.4,2.2-2.2,3.5-2.5,4.1c-2.2,2.5-4.4,4.9-6.5,7.4
		c-2.2,2.5-4.4,4.8-6.5,7c-2.2,2.2-4.4,4.2-6.7,6.1c-2.3,1.9-4.6,4-6.7,6.1v46.6c1.9,1.4,3.7,2.9,5.3,4.5c1.6,1.6,3.3,3.3,4.9,4.9
		c0.5,0.8-0.2,2.5-2.3,5.1c-2,2.6-4.7,5.5-8,8.8c-0.3,7.1-0.5,14.1-0.6,21.1c-0.1,7,0.1,13.8,0.6,20.7c0.3,1.9,1,3.7,2.2,5.3
		c1.2,1.6,2.4,3.4,3.5,5.3c2.2,3.3,4.4,6.5,6.5,9.6c2.2,3.1,4.4,6.5,6.5,10c1.4-1.9,3-3.5,4.9-4.9
		C1008.8,259.4,1010.7,258.2,1012.7,257.1z"/>
	<path class="st0" d="M1118.6,237.1c0.5,0.5,0,1.8-1.6,3.7c-1.6,1.9-3.5,4.1-5.7,6.5c-2.2,2.5-4.3,4.8-6.3,7c-2,2.2-3.2,3.5-3.5,4.1
		c-5.2,4.9-10.4,9.8-15.5,14.7c-5.2,4.9-10.2,9.8-15.1,14.7c-4.1,4.1-7.4,7.3-9.8,9.6c-2.5,2.3-4.8,4.3-7.2,5.9
		c-2.3,1.6-3.7,2.2-4.3,1.6l-12.3-12.3c-3-3-5.9-5.7-8.8-8.2c-2.9-2.5-5.4-5.2-7.6-8.2c-1.6-2.2-2.3-4.7-2-7.6
		c0.3-2.9,0.4-5.7,0.4-8.4V217v-9c-1.6-1.9-3.3-3.6-4.9-5.1c-1.6-1.5-3.3-3.2-4.9-5.1c-0.8-0.5-0.1-2.1,2-4.7
		c2.2-2.6,4.8-5.7,7.8-9.2v-33.5c0-1.4,0.5-2.7,1.6-3.9c1.1-1.2,1.9-2.3,2.5-3.1c4.1-5.2,8.4-9.9,13.1-14.3c2.2-2.2,4.4-4.3,6.7-6.3
		c2.3-2,4.7-4.2,7.2-6.3l0.4-0.4c0.5-0.5,1.1-0.9,1.6-1.2c2.2-2.7,5.1-6.1,8.8-10c3.7-3.9,7.4-7.7,11.2-11.2
		c3.8-3.5,7.2-6.5,10.2-8.8c3-2.3,4.8-3.2,5.3-2.7c4.9,5.2,9.9,10.3,15.1,15.3c5.2,5,10.4,10.2,15.5,15.3c0.3,0.6-0.5,2-2.2,4.3
		c-1.8,2.3-4.2,5-7.2,8.2c-3,3.1-6.3,6.5-9.8,10c-3.5,3.5-6.8,6.5-9.8,9c-0.8,1.9-1.7,3.9-2.7,5.9c-1,2-1.7,4.2-2.2,6.3
		c-0.8,1.4-1.2,2.6-1.2,3.7l-1.6,3.7l-1.2,7.4c0,1.4-0.1,2.7-0.4,3.9c-0.3,1.2-0.4,2.5-0.4,3.9l-1.2,8.2c-0.5,2.2-1.9,3.3-4.1,3.3
		c-1.9-0.5-2.9-1.6-2.9-3.3l-0.4-8.2v-8.6c0-1.4,0.1-2.7,0.2-4.1c0.1-1.4,0.2-2.7,0.2-4.1v-4.5c0.3-0.5,0.4-1.2,0.4-1.8
		c0-0.7,0.1-1.3,0.4-1.8c0-3.3,0.7-6.3,2-9c-3-3-5.9-5.9-8.6-8.8c-2.7-2.9-5.6-5.5-8.6-8v10.2V170c1.9,1.4,3.7,2.9,5.3,4.7
		c1.6,1.8,3.4,3.5,5.3,5.1c0.5,0.5-0.2,2.2-2.2,4.9c-2,2.7-4.8,6-8.4,9.8V226c0,3.8,0.1,6.5,0.2,8.2c0.1,1.6,1.6,3.8,4.3,6.5
		l24.5,24.5c1.6-1.9,3.4-3.7,5.3-5.5c1.9-1.8,3.8-3.6,5.7-5.5c0-0.3,1-1.4,3.1-3.3c2-1.9,4.3-4,6.7-6.3c2.5-2.3,4.8-4.3,7-5.9
		C1116.2,237.1,1117.7,236.5,1118.6,237.1z"/>
	<path class="st0" d="M1233.9,179c0.5,0.5-0.3,2.2-2.5,5.1c-2.2,2.9-4.9,6.2-8.2,10v42.1c0,1.4-0.6,2.7-1.6,3.9
		c-1.1,1.2-2,2.2-2.9,3.1c-3.8,4.9-8,9.5-12.7,13.9c-2.5,2.2-4.8,4.4-7,6.5c-2.2,2.2-4.5,4.2-7,6.1c-0.3,0-0.6,0.1-0.8,0.4
		c-0.5,0.5-0.8,1-0.8,1.2c-2.2,3-5.2,6.5-9,10.4c-3.8,4-7.6,7.7-11.5,11.2c-3.8,3.5-7.2,6.4-10.2,8.6c-3,2.2-4.8,3-5.3,2.5
		l-12.3-12.3c-3-3-6-5.7-9-8.2c-3-2.5-5.5-5.2-7.4-8.2c-1.6-2.2-2.3-4.7-2-7.6c0.3-2.9,0.4-5.7,0.4-8.4v-43.3v-7.4
		c-2.2-2.2-4.2-4.2-6.1-5.9c-1.9-1.8-4-3.7-6.1-5.9c-0.6-0.5,0.4-2.4,2.9-5.5c2.5-3.1,5.6-6.7,9.4-10.8v-31.1c0-1.4,0.5-2.7,1.4-3.9
		c1-1.2,1.8-2.3,2.7-3.1c2.2-2.7,4.3-5.2,6.3-7.4c2-2.2,4.3-4.4,6.7-6.5l1.2-1.2c-8.7-10.6-14.8-23.1-18.2-37.4
		c-3.4-14.3-5.1-28.3-5.1-41.9c0-1.1,0.6-2.2,1.8-3.3c1.2-1.1,2.1-2.2,2.7-3.3c1.9-2.5,3.9-4.8,6.1-7.2c2.2-2.3,4.4-4.6,6.5-6.7
		c2.2-2.5,4.5-4.8,7-7c2.5-2.2,4.8-4.4,7-6.5c1.6-0.8,2.9-1.5,3.7-2c0.8-0.5,1.6-1,2.5-1.4c0.8-0.4,1.2-0.5,1.2-0.2
		c0,14.7,1.8,29.6,5.3,44.6c3.5,15,10.8,28.1,21.7,39.3c4.6,4.4,9.9,8,15.7,11c5.9,3,11.9,5.1,18.2,6.1c0.8,0.3,1.6,0.4,2.5,0.4
		c0.8,0,1.5,0.3,2,0.8c0.5,0.6,0.8,1.6,0.8,3.1c0,1.5-0.1,3.1-0.2,4.7c-0.1,1.6-0.3,3.2-0.4,4.7c-0.1,1.5-0.2,2.7-0.2,3.5v40.1
		c1.6,1.6,3.3,3.3,5.1,5.1C1230.1,175.7,1232,177.4,1233.9,179z M1184.8,161c0-0.8,0.1-2.7,0.4-5.5c0.3-2.9,0.1-4.6-0.4-5.1
		c-0.3-0.5-1.4-0.9-3.5-1c-2-0.1-3.3-0.2-3.9-0.2c-2.7-0.8-5.3-1.6-7.8-2.5c-2.5-0.8-4.9-1.9-7.4-3.3v27c1.4,1.6,2.7,3.1,4.1,4.5
		c1.4,1.4,2.7,2.7,4.1,4.1c0.5,0.5,0,2-1.6,4.3c-1.6,2.3-3.8,5-6.5,8v33.9c0,3.8,0,6.6,0,8.4c0,1.8,1.5,3.9,4.5,6.3c3,3,6,6.1,9,9.2
		c3,3.1,6,6.3,9,9.6v-33.9v-18l-9.8-9.8c-0.6-0.5,0.2-2.1,2.2-4.7c2-2.6,4.6-5.7,7.6-9.2V161z"/>
	<path class="st0" d="M1443.7,176.6c0.5,0.6,0.1,1.6-1.4,3.3c-1.5,1.6-2.5,2.7-3.1,3.3c-1.6,2.2-3.4,4.4-5.3,6.5
		c-1.9,2.2-4,4.1-6.1,5.7c-0.3,0.5-0.6,1.1-1,1.6c-0.4,0.5-0.8,1-1,1.2c-1.6,3-3.5,5.5-5.7,7.6c-2.2,2-4.4,4.2-6.5,6.3
		c-2.2,2.2-4.4,4.4-6.7,6.5c-2.3,2.2-4.6,4.4-6.7,6.5c-1.1,0.6-2.3,1.4-3.7,2.5c-1.4,1.1-2.5,1.6-3.3,1.6h-30.3
		c0,4.1-0.1,8.5-0.2,13.1c-0.1,4.6-0.2,9.1-0.2,13.5c0,1.1-0.3,2-0.8,2.9c2.2,1.4,4.1,2.9,5.7,4.7c1.6,1.8,3.4,3.6,5.3,5.5
		c0.8,0.8-0.5,3.3-4.1,7.6c-3.5,4.2-7.6,8.7-12.3,13.3c-4.6,4.6-9.1,8.7-13.3,12.3c-4.2,3.5-6.7,4.9-7.6,4.1
		c-4.6-4.6-9.5-9.4-14.5-14.3c-5.1-4.9-9.9-9.7-14.5-14.3c-0.8-1.1,0.8-4,4.9-8.8c4.1-4.8,8.9-9.6,14.3-14.5v-49.9
		c-1.6-1.6-3.5-3.3-5.5-4.9c-2-1.6-3.8-3.4-5.1-5.3c-0.5-0.5,0.1-2.2,2-4.9c1.9-2.7,4.8-5.6,8.6-8.6v-61.8V93.5c0-1.9,0.1-4,0.4-6.3
		c0.3-2.3,0.1-4.6-0.4-6.7c-0.8-2.2-2.3-3.9-4.3-5.3c-2-1.4-3.7-3.1-5.1-5.3c-3.3-3-6.5-6-9.6-9c-3.1-3-6.2-6.1-9.2-9.4
		c-0.5-0.5,0.8-2.8,3.9-6.8c3.1-3.9,7-8.2,11.5-12.7c4.5-4.5,9-8.5,13.5-12.1c4.5-3.5,7.6-5.3,9.2-5.3c10.1,0,20.3,0,30.7,0
		c10.4,0,20.9,0.1,31.5,0.4c3.5,0,5.9,0.2,7,0.6c1.1,0.4,2.7,2.1,4.9,5.1c2.2,2.2,4.3,4.5,6.3,7c2,2.5,4.2,4.8,6.3,7
		c0.8,1.4,2,2.9,3.7,4.5c1.6,1.6,3,3.5,4.1,5.7c0.5,1.1,0.8,2.4,0.8,3.9c0,1.5,0,3.2,0,5.1v25.8v83.4c2.2,2.2,4.4,4.4,6.5,6.7
		C1439.3,172.1,1441.5,174.4,1443.7,176.6z M1364.7,192.5h28.2v-11.5v-72V87.4c0-2.7-0.3-4.6-0.8-5.5c-0.6-1-1.8-2.4-3.7-4.3
		c-2.2-2.5-4.2-4.8-5.9-7.2c-1.8-2.3-3.6-4.6-5.5-6.8c-1.4-1.4-2.7-3.1-4.1-5.3c-1.4-2.2-2.9-3.7-4.5-4.5c-0.8-1.1-2.7-1.6-5.7-1.6
		c0.5,19.4,0.8,38.6,0.8,57.7c0,19.1-0.3,38.4-0.8,58.1c2.2,1.4,3.9,2.8,5.1,4.3c1.2,1.5,2.5,2.9,3.9,4.3c0.5,0.6-0.1,2-1.8,4.5
		c-1.8,2.5-4.2,5.3-7.2,8.6v2.9H1364.7z"/>
	<path class="st0" d="M1570.4,110.3c0.5,0.6-0.1,2-1.8,4.5c-1.8,2.5-4.2,5.3-7.2,8.4c-3,3.1-6.3,6.5-9.8,10c-3.5,3.5-6.8,6.5-9.8,9
		l-0.8,0.8c-1.4,2.2-2.5,4.4-3.5,6.5c-1,2.2-1.8,4.4-2.7,6.5c-0.3,0.8-0.5,1.5-0.6,2c-0.1,0.5-0.2,1.1-0.2,1.6l-0.8,4.1
		c-0.8,2.2-1.2,4.6-1.2,7.4c-0.6,1.9-1.1,4.5-1.6,7.8l-1.2,7.8v0.4c0,0.8-0.4,1.6-1.2,2.3c-0.8,0.7-1.6,1-2.5,1
		c-2.2-0.5-3.3-1.8-3.3-3.7l-0.8-8.2v-8.2c0-1.4,0.1-2.8,0.2-4.3c0.1-1.5,0.2-2.9,0.2-4.3l0.4-4.1c0-1.4,0.3-2.9,0.8-4.5
		c0.3-1.9,0.7-3.7,1.2-5.3c0.5-1.6,1.1-3.5,1.6-5.7c-3-3-6.1-6-9.2-9c-3.1-3-6.2-6-9.2-9v9v36.4c1.6,1.4,3.3,2.9,5.1,4.7
		c1.8,1.8,3.5,3.5,5.1,5.1c0.5,0.8-0.2,2.6-2.2,5.3c-2,2.7-4.7,5.9-8,9.4v61.3c0,0.3-0.3,1-0.8,2c1.9,2.2,3.7,4.2,5.5,5.9
		c1.8,1.8,3.6,3.6,5.5,5.5c0.8,0.8-0.6,3.4-4.3,7.8c-3.7,4.4-7.9,8.9-12.7,13.7c-4.8,4.8-9.3,8.9-13.5,12.5c-4.2,3.5-6.7,5-7.6,4.5
		c-5.2-4.9-10.2-9.9-15.1-14.9c-4.9-5-10-10-15.1-14.9c-0.5-0.8,1.3-3.7,5.5-8.6c4.2-4.9,9.1-9.9,14.5-15.1v-46.2
		c-1.9-1.6-3.7-3.3-5.3-5.1c-1.6-1.8-3.3-3.3-4.9-4.7c-0.8-0.5-0.1-2.1,2-4.7c2.2-2.6,4.9-5.7,8.2-9.2v-17.2c0-3,0.1-6.4,0.4-10.2
		c0.3-3.8-0.3-6.8-1.6-9c-2.2-3-4.8-5.8-7.8-8.4c-3-2.6-5.7-5-8.2-7.2c-2.2-1.9-4.2-3.7-5.9-5.5c-1.8-1.8-3.7-3.7-5.9-5.9
		c-0.8-0.8,0.6-3.4,4.3-7.8c3.7-4.4,7.9-8.9,12.7-13.7c4.8-4.8,9.3-9,13.7-12.7c4.4-3.7,7-5.1,7.8-4.3c2.5,2.2,5,4.5,7.6,7
		c2.6,2.5,5,5,7.2,7.8c1.9,2.2,4.4,4.4,7.6,6.7c3.1,2.3,5.2,4.6,6.3,6.7c0.3,0.6,0.4,1.4,0.4,2.5c2.2-2.7,5.1-6,8.8-9.8
		c3.7-3.8,7.3-7.4,10.8-10.6c3.5-3.3,6.7-5.9,9.4-8c2.7-2,4.4-2.8,4.9-2.2c4.6,4.6,9.3,9.3,14.1,14.1
		C1560.7,101,1565.5,105.7,1570.4,110.3z"/>
	<path class="st0" d="M1662.4,237.1c0.5,0.5,0,1.8-1.6,3.7c-1.6,1.9-3.5,4.1-5.7,6.5c-2.2,2.5-4.3,4.8-6.3,7c-2,2.2-3.2,3.5-3.5,4.1
		c-5.2,4.9-10.4,9.8-15.5,14.7c-5.2,4.9-10.2,9.8-15.1,14.7c-4.1,4.1-7.4,7.3-9.8,9.6c-2.5,2.3-4.8,4.3-7.2,5.9
		c-2.3,1.6-3.7,2.2-4.3,1.6l-12.3-12.3c-3-3-5.9-5.7-8.8-8.2c-2.9-2.5-5.4-5.2-7.6-8.2c-1.6-2.2-2.3-4.7-2-7.6
		c0.3-2.9,0.4-5.7,0.4-8.4V217v-9c-1.6-1.9-3.3-3.6-4.9-5.1c-1.6-1.5-3.3-3.2-4.9-5.1c-0.8-0.5-0.1-2.1,2-4.7
		c2.2-2.6,4.8-5.7,7.8-9.2v-33.5c0-1.4,0.5-2.7,1.6-3.9c1.1-1.2,1.9-2.3,2.5-3.1c4.1-5.2,8.4-9.9,13.1-14.3c2.2-2.2,4.4-4.3,6.7-6.3
		c2.3-2,4.7-4.2,7.2-6.3l0.4-0.4c0.5-0.5,1.1-0.9,1.6-1.2c2.2-2.7,5.1-6.1,8.8-10c3.7-3.9,7.4-7.7,11.2-11.2
		c3.8-3.5,7.2-6.5,10.2-8.8c3-2.3,4.8-3.2,5.3-2.7c4.9,5.2,9.9,10.3,15.1,15.3c5.2,5,10.4,10.2,15.5,15.3c0.3,0.6-0.5,2-2.2,4.3
		c-1.8,2.3-4.2,5-7.2,8.2c-3,3.1-6.3,6.5-9.8,10c-3.5,3.5-6.8,6.5-9.8,9c-0.8,1.9-1.7,3.9-2.7,5.9c-1,2-1.7,4.2-2.2,6.3
		c-0.8,1.4-1.2,2.6-1.2,3.7l-1.6,3.7l-1.2,7.4c0,1.4-0.1,2.7-0.4,3.9c-0.3,1.2-0.4,2.5-0.4,3.9l-1.2,8.2c-0.5,2.2-1.9,3.3-4.1,3.3
		c-1.9-0.5-2.9-1.6-2.9-3.3l-0.4-8.2v-8.6c0-1.4,0.1-2.7,0.2-4.1c0.1-1.4,0.2-2.7,0.2-4.1v-4.5c0.3-0.5,0.4-1.2,0.4-1.8
		c0-0.7,0.1-1.3,0.4-1.8c0-3.3,0.7-6.3,2-9c-3-3-5.9-5.9-8.6-8.8c-2.7-2.9-5.6-5.5-8.6-8v10.2V170c1.9,1.4,3.7,2.9,5.3,4.7
		c1.6,1.8,3.4,3.5,5.3,5.1c0.5,0.5-0.2,2.2-2.2,4.9c-2,2.7-4.8,6-8.4,9.8V226c0,3.8,0.1,6.5,0.2,8.2c0.1,1.6,1.6,3.8,4.3,6.5
		l24.5,24.5c1.6-1.9,3.4-3.7,5.3-5.5c1.9-1.8,3.8-3.6,5.7-5.5c0-0.3,1-1.4,3.1-3.3c2-1.9,4.3-4,6.7-6.3c2.5-2.3,4.8-4.3,7-5.9
		C1660.1,237.1,1661.6,236.5,1662.4,237.1z"/>
	<path class="st0" d="M1767.1,190.5c0,7.9,0.1,15.8,0.2,23.7c0.1,7.9,0.1,15.9-0.2,24.1c0,5.5-2,10.1-5.9,13.9
		c-4,3.8-7.7,7.4-11.2,10.6l-15.9,15.9c-4.4,4.4-8.7,9-13.1,13.9c-4.4,4.9-9.1,8.9-14.3,11.9c-2.5,1.4-5.1,2-8,1.8
		c-2.9-0.1-5.7-0.2-8.4-0.2h-45c-0.3,0,0.3-1,1.6-3.1c1.4-2,2.3-3.2,2.9-3.5c1.9-2.7,3.9-5.2,6.1-7.6c2.2-2.3,4.4-4.7,6.5-7.2
		c4.1-4.1,8.9-8.2,14.3-12.3c0.8-0.8,1.8-1.8,2.9-3.1c1.1-1.2,2.3-1.8,3.7-1.8h45.8V206c-1.6-1.6-3.3-3.3-4.9-5.1
		c-1.6-1.8-3.3-3.5-4.9-5.1c-6,5.5-11.9,10.8-17.8,16.2c-5.9,5.3-11.8,10.7-17.8,16.2c-3.3,2.7-5.9,4.8-7.8,6.3
		c-1.9,1.5-4.5,3.5-7.8,5.9v-35.6c-3.8-3-7.2-6.4-10.2-10.2c-0.6-0.5,0.1-2.1,2-4.7c1.9-2.6,4.6-5.8,8.2-9.6v-30.7
		c0-4.9,1.6-9.1,4.7-12.7c3.1-3.5,6.3-7.1,9.6-10.6c3.5-3.5,7.1-7,10.6-10.2c3.5-3.3,7.1-6.4,10.6-9.4c3-3,6-5.8,9-8.4
		c3-2.6,6-5.4,9-8.4c1.9-1.9,3.8-3.6,5.7-5.1c1.9-1.5,4.2-2.4,7-2.7h10.2h26.6c1.4,0,2.1,0,2.2,0c0.1,0,0.5,0.5,1,1.6
		c0.8,0.8,1,2.4,0.6,4.7c-0.4,2.3-0.6,4.2-0.6,5.5c0,1.4-0.5,2.7-1.4,3.9c-1,1.2-1.8,2.3-2.7,3.1c-1.9,2.7-4,5.2-6.1,7.4
		c-2.2,2.2-4.4,4.4-6.5,6.5c-2.5,2.2-4.8,4.4-7,6.7c-2.2,2.3-4.4,4.4-6.5,6.3c-1.4,0.8-2.6,1.6-3.7,2.5l-3.7,2
		c0-1.4,0.1-3.5,0.2-6.5c0.1-3-0.1-4.9-0.6-5.7c-1.1-0.5-3.1-0.7-6.1-0.4c-3,0.3-5,0.4-6.1,0.4h-18v47c1.6,1.6,3.3,3.2,5.1,4.7
		c1.8,1.5,3.5,3.2,5.1,5.1c0.5,0.5-0.2,2.2-2.2,4.9c-2,2.7-4.7,5.9-8,9.4v8.6c4.6-4.4,9.3-8.7,13.9-12.9c4.6-4.2,9.3-8.4,13.9-12.5
		c2.7-2.7,5.4-5.3,8-7.8c2.6-2.5,5-4.6,7.2-6.5c1.1-1.1,1.9-1.6,2.5-1.6c3.3-2.7,5.9-4.9,7.8-6.5c1.9-1.6,3.7-3.1,5.3-4.3
		s2.5-1.7,2.5-1.4V168c1.6,1.4,3.3,2.8,4.9,4.3c1.6,1.5,3.1,3.1,4.5,4.7c0.5,0.5-0.1,2-2,4.5c-1.9,2.5-4.4,5.3-7.4,8.6V190.5z"/>
	<path class="st0" d="M1896.4,190.5c0,7.9,0.1,15.8,0.2,23.7c0.1,7.9,0.1,15.9-0.2,24.1c0,5.5-2,10.1-5.9,13.9
		c-4,3.8-7.7,7.4-11.2,10.6l-15.9,15.9c-4.4,4.4-8.7,9-13.1,13.9c-4.4,4.9-9.1,8.9-14.3,11.9c-2.5,1.4-5.1,2-8,1.8
		c-2.9-0.1-5.7-0.2-8.4-0.2h-45c-0.3,0,0.3-1,1.6-3.1c1.4-2,2.3-3.2,2.9-3.5c1.9-2.7,3.9-5.2,6.1-7.6c2.2-2.3,4.4-4.7,6.5-7.2
		c4.1-4.1,8.9-8.2,14.3-12.3c0.8-0.8,1.8-1.8,2.9-3.1c1.1-1.2,2.3-1.8,3.7-1.8h45.8V206c-1.6-1.6-3.3-3.3-4.9-5.1
		c-1.6-1.8-3.3-3.5-4.9-5.1c-6,5.5-11.9,10.8-17.8,16.2c-5.9,5.3-11.8,10.7-17.8,16.2c-3.3,2.7-5.9,4.8-7.8,6.3
		c-1.9,1.5-4.5,3.5-7.8,5.9v-35.6c-3.8-3-7.2-6.4-10.2-10.2c-0.6-0.5,0.1-2.1,2-4.7c1.9-2.6,4.6-5.8,8.2-9.6v-30.7
		c0-4.9,1.6-9.1,4.7-12.7c3.1-3.5,6.3-7.1,9.6-10.6c3.5-3.5,7.1-7,10.6-10.2c3.5-3.3,7.1-6.4,10.6-9.4c3-3,6-5.8,9-8.4
		c3-2.6,6-5.4,9-8.4c1.9-1.9,3.8-3.6,5.7-5.1c1.9-1.5,4.2-2.4,7-2.7h10.2h26.6c1.4,0,2.1,0,2.2,0c0.1,0,0.5,0.5,1,1.6
		c0.8,0.8,1,2.4,0.6,4.7c-0.4,2.3-0.6,4.2-0.6,5.5c0,1.4-0.5,2.7-1.4,3.9c-1,1.2-1.8,2.3-2.7,3.1c-1.9,2.7-4,5.2-6.1,7.4
		c-2.2,2.2-4.4,4.4-6.5,6.5c-2.5,2.2-4.8,4.4-7,6.7c-2.2,2.3-4.4,4.4-6.5,6.3c-1.4,0.8-2.6,1.6-3.7,2.5l-3.7,2
		c0-1.4,0.1-3.5,0.2-6.5c0.1-3-0.1-4.9-0.6-5.7c-1.1-0.5-3.1-0.7-6.1-0.4c-3,0.3-5,0.4-6.1,0.4h-18v47c1.6,1.6,3.3,3.2,5.1,4.7
		c1.8,1.5,3.5,3.2,5.1,5.1c0.5,0.5-0.2,2.2-2.2,4.9c-2,2.7-4.7,5.9-8,9.4v8.6c4.6-4.4,9.3-8.7,13.9-12.9c4.6-4.2,9.3-8.4,13.9-12.5
		c2.7-2.7,5.4-5.3,8-7.8c2.6-2.5,5-4.6,7.2-6.5c1.1-1.1,1.9-1.6,2.5-1.6c3.3-2.7,5.9-4.9,7.8-6.5c1.9-1.6,3.7-3.1,5.3-4.3
		s2.5-1.7,2.5-1.4V168c1.6,1.4,3.3,2.8,4.9,4.3c1.6,1.5,3.1,3.1,4.5,4.7c0.5,0.5-0.1,2-2,4.5c-1.9,2.5-4.4,5.3-7.4,8.6V190.5z"/>
</g>
</svg>
